<svg enable-background="new 0 0 612 612" fill="#fff" version="1.1" viewBox="0 0 612 612" xml:space="preserve" xmlns="http://www.w3.org/2000/svg">
			<path d="m581.4 520.2h-550.8c-16.891 0-30.6 13.709-30.6 30.6 0 16.892 13.709 30.601 30.6 30.601h550.8c16.891 0 30.6-13.709 30.6-30.602 0-16.89-13.709-30.599-30.6-30.599zm-550.8-428.4h550.8c16.891 0 30.6-13.708 30.6-30.6s-13.709-30.6-30.6-30.6h-550.8c-16.891 1e-3 -30.6 13.709-30.6 30.601 0 16.891 13.709 30.599 30.6 30.599zm550.8 183.6h-550.8c-16.891 0-30.6 13.709-30.6 30.601s13.709 30.6 30.6 30.6h550.8c16.891 0 30.6-13.709 30.6-30.6s-13.709-30.601-30.6-30.601z"/>
</svg>
